<svg xmlns="http://www.w3.org/2000/svg" width="41.256" height="33.005" viewBox="0 0 41.256 33.005"><path d="M433.453,653.5h-16.5l-2.909-2.909a4.14,4.14,0,0,0-2.929-1.217H400.448a4.1,4.1,0,0,0-4.106,4.126l-.02,24.753a4.112,4.112,0,0,0,4.126,4.126h33.005a4.138,4.138,0,0,0,4.125-4.126V657.626A4.138,4.138,0,0,0,433.453,653.5ZM429.327,670H425.2v4.126a2.063,2.063,0,0,1-4.125,0V670H416.95a2.063,2.063,0,1,1,0-4.125h4.126v-4.126a2.063,2.063,0,0,1,4.125,0v4.126h4.126a2.063,2.063,0,1,1,0,4.125Z" transform="translate(-396.322 -649.374)" fill="#5081ad"/></svg>