<svg xmlns="http://www.w3.org/2000/svg" width="40.869" height="29.724" viewBox="0 0 40.869 29.724"><path d="M357.95,679.337V657.046a3.728,3.728,0,0,0-3.715-3.716H320.8a3.727,3.727,0,0,0-3.715,3.716v22.291a3.727,3.727,0,0,0,3.715,3.717h33.439A3.728,3.728,0,0,0,357.95,679.337Zm-26.194-9.323,3.9,4.7,5.757-7.413a.935.935,0,0,1,1.488.02l6.52,8.694a.928.928,0,0,1-.743,1.486H326.407a.926.926,0,0,1-.725-1.5l4.626-5.945A.914.914,0,0,1,331.756,670.014Z" transform="translate(-317.081 -653.33)" fill="#5081ad"/></svg>