<svg xmlns="http://www.w3.org/2000/svg" width="15.72" height="40.705" viewBox="0 0 15.72 40.705"><g transform="translate(-587.599 -274.134)"><path d="M590.966,310.046V297.273h-1.123a2.126,2.126,0,0,1-2.245-1.965v-8.843a4.251,4.251,0,0,1,4.49-3.93h6.738a4.252,4.252,0,0,1,4.492,3.93v8.843a2.126,2.126,0,0,1-2.246,1.965H599.95v12.773a2.125,2.125,0,0,1-2.246,1.964h-4.492A2.126,2.126,0,0,1,590.966,310.046Z" transform="translate(0 2.829)" fill="#5081ad"/><path d="M594.608,283.119a4.492,4.492,0,1,0-4.49-4.493A4.479,4.479,0,0,0,594.608,283.119Z" transform="translate(0.848 0)" fill="#5081ad"/></g></svg>